<?xml version="1.0" standalone="no"?>
<!DOCTYPE svg PUBLIC "-//W3C//DTD SVG 20010904//EN"
 "http://www.w3.org/TR/2001/REC-SVG-20010904/DTD/svg10.dtd">
<svg version="1.0" xmlns="http://www.w3.org/2000/svg"
 width="512.000000pt" height="512.000000pt" viewBox="0 0 512.000000 512.000000"
 preserveAspectRatio="xMidYMid meet">
<metadata>
Created by potrace 1.11, written by Peter Selinger 2001-2013
</metadata>
<g transform="translate(0.000000,512.000000) scale(0.100000,-0.100000)"
fill="#000000" stroke="none">
<path d="M450 4804 c-167 -35 -315 -151 -388 -304 -22 -47 -45 -107 -51 -135
-17 -81 -13 -3542 4 -3621 41 -191 198 -358 396 -422 51 -16 185 -17 2149 -17
2021 0 2097 1 2150 19 201 68 343 216 394 411 14 53 16 255 16 1820 0 1537 -2
1768 -15 1820 -44 173 -149 306 -300 381 -134 66 1 62 -2247 62 -1684 0 -2054
-3 -2108 -14z"/>
</g>
</svg>
